####
#
# OBJ File Generated by Meshlab
#
####
# Object sphere.obj
#
# Vertices: 42
# Faces: 80
#
####
vn -0.000002 -1.000000 0.000000
v 0.000000 -1.000000 0.000000
vn 0.723608 -0.447215 0.525728
v 0.723607 -0.447220 0.525725
vn -0.276392 -0.447217 0.850649
v -0.276388 -0.447220 0.850649
vn -0.894426 -0.447215 -0.000000
v -0.894426 -0.447216 0.000000
vn -0.276392 -0.447217 -0.850649
v -0.276388 -0.447220 -0.850649
vn 0.723608 -0.447215 -0.525728
v 0.723607 -0.447220 -0.525725
vn 0.276392 0.447217 0.850649
v 0.276388 0.447220 0.850649
vn -0.723608 0.447215 0.525728
v -0.723607 0.447220 0.525725
vn -0.723608 0.447215 -0.525728
v -0.723607 0.447220 -0.525725
vn 0.276392 0.447217 -0.850649
v 0.276388 0.447220 -0.850649
vn 0.894426 0.447215 0.000000
v 0.894426 0.447216 0.000000
vn 0.000002 1.000000 0.000000
v 0.000000 1.000000 0.000000
vn 0.425324 -0.850652 0.309015
v 0.425323 -0.850654 0.309011
vn 0.262868 -0.525733 0.809015
v 0.262869 -0.525738 0.809012
vn -0.162459 -0.850653 0.499997
v -0.162456 -0.850654 0.499995
vn 0.425324 -0.850652 -0.309015
v 0.425323 -0.850654 -0.309011
vn 0.850650 -0.525732 0.000000
v 0.850648 -0.525736 0.000000
vn -0.688190 -0.525732 0.500001
v -0.688189 -0.525736 0.499997
vn -0.525729 -0.850652 0.000000
v -0.525730 -0.850652 0.000000
vn -0.688190 -0.525732 -0.500001
v -0.688189 -0.525736 -0.499997
vn -0.162459 -0.850653 -0.499997
v -0.162456 -0.850654 -0.499995
vn 0.262868 -0.525733 -0.809015
v 0.262869 -0.525738 -0.809012
vn 0.951056 -0.000000 -0.309018
v 0.951058 0.000000 -0.309013
vn 0.951056 -0.000000 0.309018
v 0.951058 0.000000 0.309013
vn 0.587787 0.000001 0.809016
v 0.587786 0.000000 0.809017
vn -0.000000 -0.000000 1.000000
v 0.000000 0.000000 1.000000
vn -0.587787 -0.000001 0.809016
v -0.587786 0.000000 0.809017
vn -0.951056 0.000000 0.309018
v -0.951058 0.000000 0.309013
vn -0.951056 0.000000 -0.309018
v -0.951058 0.000000 -0.309013
vn -0.587787 -0.000001 -0.809016
v -0.587786 0.000000 -0.809017
vn -0.000000 -0.000000 -1.000000
v 0.000000 0.000000 -1.000000
vn 0.587787 0.000001 -0.809016
v 0.587786 0.000000 -0.809017
vn 0.688190 0.525732 0.500001
v 0.688189 0.525736 0.499997
vn -0.262868 0.525733 0.809015
v -0.262869 0.525738 0.809012
vn -0.850650 0.525732 0.000000
v -0.850648 0.525736 0.000000
vn -0.262868 0.525733 -0.809015
v -0.262869 0.525738 -0.809012
vn 0.688190 0.525732 -0.500001
v 0.688189 0.525736 -0.499997
vn 0.525729 0.850652 0.000000
v 0.525730 0.850652 0.000000
vn 0.162459 0.850653 0.499997
v 0.162456 0.850654 0.499995
vn -0.425324 0.850652 0.309015
v -0.425323 0.850654 0.309011
vn -0.425324 0.850652 -0.309015
v -0.425323 0.850654 -0.309011
vn 0.162459 0.850653 -0.499997
v 0.162456 0.850654 -0.499995
# 42 vertices, 0 vertices normals

f 1//1 13//13 15//15
f 2//2 13//13 17//17
f 1//1 15//15 19//19
f 1//1 19//19 21//21
f 1//1 21//21 16//16
f 2//2 17//17 24//24
f 3//3 14//14 26//26
f 4//4 18//18 28//28
f 5//5 20//20 30//30
f 6//6 22//22 32//32
f 2//2 24//24 25//25
f 3//3 26//26 27//27
f 4//4 28//28 29//29
f 5//5 30//30 31//31
f 6//6 32//32 23//23
f 7//7 33//33 39//39
f 8//8 34//34 40//40
f 9//9 35//35 41//41
f 10//10 36//36 42//42
f 11//11 37//37 38//38
f 15//15 14//14 3//3
f 15//15 13//13 14//14
f 13//13 2//2 14//14
f 17//17 16//16 6//6
f 17//17 13//13 16//16
f 13//13 1//1 16//16
f 19//19 18//18 4//4
f 19//19 15//15 18//18
f 15//15 3//3 18//18
f 21//21 20//20 5//5
f 21//21 19//19 20//20
f 19//19 4//4 20//20
f 16//16 22//22 6//6
f 16//16 21//21 22//22
f 21//21 5//5 22//22
f 24//24 23//23 11//11
f 24//24 17//17 23//23
f 17//17 6//6 23//23
f 26//26 25//25 7//7
f 26//26 14//14 25//25
f 14//14 2//2 25//25
f 28//28 27//27 8//8
f 28//28 18//18 27//27
f 18//18 3//3 27//27
f 30//30 29//29 9//9
f 30//30 20//20 29//29
f 20//20 4//4 29//29
f 32//32 31//31 10//10
f 32//32 22//22 31//31
f 22//22 5//5 31//31
f 25//25 33//33 7//7
f 25//25 24//24 33//33
f 24//24 11//11 33//33
f 27//27 34//34 8//8
f 27//27 26//26 34//34
f 26//26 7//7 34//34
f 29//29 35//35 9//9
f 29//29 28//28 35//35
f 28//28 8//8 35//35
f 31//31 36//36 10//10
f 31//31 30//30 36//36
f 30//30 9//9 36//36
f 23//23 37//37 11//11
f 23//23 32//32 37//37
f 32//32 10//10 37//37
f 39//39 38//38 12//12
f 39//39 33//33 38//38
f 33//33 11//11 38//38
f 40//40 39//39 12//12
f 40//40 34//34 39//39
f 34//34 7//7 39//39
f 41//41 40//40 12//12
f 41//41 35//35 40//40
f 35//35 8//8 40//40
f 42//42 41//41 12//12
f 42//42 36//36 41//41
f 36//36 9//9 41//41
f 38//38 42//42 12//12
f 38//38 37//37 42//42
f 37//37 10//10 42//42
# 80 faces, 0 coords texture

# End of File