vn -0.5773502867 -0.5773502508 0.5773502700
v -0.3090169883 -0.3090169883 0.3090169883
vn 0.9341723446 0.3568221273 -0.0000000000
v 0.5000000000 0.1909830436 0.0000000000
vn 0.9341723463 -0.3568221230 -0.0000000000
v 0.5000000000 -0.1909830436 0.0000000000
vn -0.9341723446 0.3568221273 0.0000000000
v -0.5000000000 0.1909830436 0.0000000000
vn -0.9341723463 -0.3568221230 0.0000000000
v -0.5000000000 -0.1909830436 0.0000000000
vn 0.0000000000 0.9341723387 0.3568221427
v 0.0000000000 0.5000000000 0.1909830436
vn -0.0000000000 0.9341723387 -0.3568221427
v 0.0000000000 0.5000000000 -0.1909830436
vn 0.3568221440 -0.0000000103 -0.9341723382
v 0.1909830436 0.0000000000 -0.5000000000
vn -0.3568221419 -0.0000000271 -0.9341723391
v -0.1909830436 0.0000000000 -0.5000000000
vn -0.0000000039 -0.9341723353 -0.3568221517
v 0.0000000000 -0.5000000000 -0.1909830436
vn -0.0000000000 -0.9341723387 0.3568221427
v 0.0000000000 -0.5000000000 0.1909830436
vn 0.3568221517 -0.0000000039 0.9341723353
v 0.1909830436 0.0000000000 0.5000000000
vn -0.3568221517 -0.0000000039 0.9341723353
v -0.1909830436 0.0000000000 0.5000000000
vn 0.5773502692 0.5773502692 -0.5773502692
v 0.3090169883 0.3090169883 -0.3090169883
vn 0.5773502692 0.5773502692 0.5773502692
v 0.3090169883 0.3090169883 0.3090169883
vn -0.5773502692 0.5773502692 -0.5773502692
v -0.3090169883 0.3090169883 -0.3090169883
vn -0.5773502692 0.5773502692 0.5773502692
v -0.3090169883 0.3090169883 0.3090169883
vn 0.5773502867 -0.5773502508 -0.5773502700
v 0.3090169883 -0.3090169883 -0.3090169883
vn 0.5773502867 -0.5773502508 0.5773502700
v 0.3090169883 -0.3090169883 0.3090169883
vn -0.5773502684 -0.5773502516 -0.5773502875
v -0.3090169883 -0.3090169883 -0.3090169883
f 19//19 3//3 2//2
f 12//12 19//19 2//2
f 15//15 12//12 2//2
f 8//8 14//14 2//2
f 18//18 8//8 2//2
f 3//3 18//18 2//2
f 20//20 5//5 4//4
f 9//9 20//20 4//4
f 16//16 9//9 4//4
f 13//13 17//17 4//4
f 1//1 13//13 4//4
f 5//5 1//1 4//4
f 7//7 16//16 4//4
f 6//6 7//7 4//4
f 17//17 6//6 4//4
f 6//6 15//15 2//2
f 7//7 6//6 2//2
f 14//14 7//7 2//2
f 10//10 18//18 3//3
f 11//11 10//10 3//3
f 19//19 11//11 3//3
f 11//11 1//1 5//5
f 10//10 11//11 5//5
f 20//20 10//10 5//5
f 20//20 9//9 8//8
f 10//10 20//20 8//8
f 18//18 10//10 8//8
f 9//9 16//16 7//7
f 8//8 9//9 7//7
f 14//14 8//8 7//7
f 12//12 15//15 6//6
f 13//13 12//12 6//6
f 17//17 13//13 6//6
f 13//13 1//1 11//11
f 12//12 13//13 11//11
f 19//19 12//12 11//11
